<?xml version="1.0" encoding="UTF-8"?>
<svg id="Capa_2" data-name="Capa 2" xmlns="http://www.w3.org/2000/svg" viewBox="0 0 162.4 20.17">
  <defs>
    <style>
      .cls-1 {
        fill: #1e1e1d;
      }

      .cls-2 {
        fill: #010101;
      }
    </style>
  </defs>
  <g id="Capa_1-2" data-name="Capa 1">
    <g>
      <g>
        <rect class="cls-2" x="26.96" y="6.16" width="1.45" height="2.4"/>
        <path class="cls-2" d="M29.78.26c-.47,0-.84.38-.84.84v12.51c0,.47.38.84.84.84s.84-.38.84-.84V1.1c0-.47-.38-.84-.84-.84ZM30.21,13.64c0,.17-.19.31-.43.31s-.43-.14-.43-.31v-.37c0,.17.19.31.43.31s.43-.14.43-.31v.37ZM30.21,4.17c0-.17-.19-.31-.43-.31s-.43.14-.43.31V1.05c0-.17.19-.31.43-.31s.43.14.43.31v3.12Z"/>
        <path class="cls-2" d="M23.31,3.83c0,.08-.07.15-.15.15h0c-.08,0-.15-.07-.15-.15V.15c0-.08.07-.15.15-.15h0c.08,0,.15.07.15.15v3.68Z"/>
        <path class="cls-2" d="M4.83,7.16c0,.16-.13.28-.28.28h0c-.16,0-.28-.13-.28-.28V.28c0-.16.13-.28.28-.28h0c.16,0,.28.13.28.28v6.88Z"/>
        <path class="cls-2" d="M4.83,18.5c0,.16-.13.28-.28.28h0c-.16,0-.28-.13-.28-.28v-6.88c0-.16.13-.28.28-.28h0c.16,0,.28.13.28.28v6.88Z"/>
        <path class="cls-2" d="M31.61,10.54c0,.16-.13.28-.28.28h0c-.16,0-.28-.13-.28-.28v-2.5l1.1-2.85v-1.53c0-.16.13-.28.28-.28h0c.16,0,.28.13.28.28v1.52l-1.1,2.86v2.5Z"/>
        <g>
          <path class="cls-2" d="M3.06,16.97c0-.18.15-.33.33-.33h0c.18,0,.33.15.33.33v.38c0,.18-.15.33-.33.33h0c-.18,0-.33-.15-.33-.33v-.38Z"/>
          <rect class="cls-2" x="3.31" y="17" width="1.05" height=".32"/>
        </g>
        <path class="cls-2" d="M2.54,4.52c-.55.16-.67.68-.2.86.52.2.47-.55,1.35-.32l.23-.29s-.84-.42-1.38-.25ZM2.49,5.18c-.11,0-.19-.09-.19-.19s.09-.19.19-.19.19.09.19.19-.09.19-.19.19Z"/>
        <path class="cls-2" d="M5.37,1.71c0,.13-.11.24-.24.24h-1.18c-.13,0-.24-.11-.24-.24h0c0-.13.11-.24.24-.24h1.18c.13,0,.24.11.24.24h0Z"/>
        <path class="cls-2" d="M3.99,13.83V2.96h1.27s-.7.27-.86.37c-.17.1-.41,10.2-.4,10.5Z"/>
        <path class="cls-2" d="M27.03,19.6h.76s-1.03-3.93-.41-7.77c.62-3.84.6-7.37-2.59-8.03-3.28-.67-6.4,1.79-11.59,1.79s-7.06-1.85-7.59-3.11h-2.05v11.75h2.05s0-3.43,1.82-4.54c1.59-.97,7.53-1.32,12.01.09,4.48,1.41,1.44,7.53-.32,9.82h1.01c3.18-3.89,2.26-7.53,2.26-7.53,1.13,3.59-1.05,7.53-1.05,7.53h5.29s-.28-2.37-.04-4.52c0,0-.03,2.85.45,4.52ZM18.43,6.36c-1.2.22-3.55.48-3.55.48,0,0,1.37-.19,2.57-.43,1.2-.24,4.67-1.04,6.19-.88.76.08,1,.29.8.43-.2.15-.77.14-1.37.05-1.19-.17-3.44.12-4.63.35ZM23.97,9.7c-.95,0-1.72-.77-1.72-1.72s.77-1.72,1.72-1.72,1.72.77,1.72,1.72-.77,1.72-1.72,1.72ZM15.5,6.29c-3.38.22-5.56-.28-5.56-.28,0,0,2.27.32,5.58.01,2.28-.21,6.37-1.8,8.22-1.75,2.1.05,2.92,1.69,2.92,1.69-2.23-1.88-7.77.11-11.16.33Z"/>
        <path class="cls-2" d="M4.59,13.83h.64s.15-1.26.3-1.63c0,0-.29.8-.36,1.1s-.26.51-.57.53Z"/>
        <path class="cls-2" d="M36.2,3.58c-1.13,0-2.54.44-2.54.44l-.55-.44v1.61l.55-.44s1.4.44,2.54.44,1.67-.4,1.67-.81-.54-.81-1.67-.81ZM34.6,4.09s2.51-.66,3.03.25c0,0-.37-.4-3.03-.25Z"/>
        <path class="cls-2" d="M23.97,6.62c-.75,0-1.36.61-1.36,1.36s.61,1.36,1.36,1.36,1.36-.61,1.36-1.36-.61-1.36-1.36-1.36Z"/>
        <path class="cls-2" d="M.28,20.17c-.16,0-.28-.13-.28-.28h0c0-.16.13-.28.28-.28h30.06c.16,0,.28.13.28.28h0c0,.16-.13.28-.28.28H.28Z"/>
      </g>
      <g>
        <path class="cls-1" d="M38.33,11.49c0-3,2.38-5.33,5.54-5.33,2.26,0,4.06,1.23,4.06,2.64,0,.72-.49,1.24-1.18,1.24s-1.21-.5-1.21-1.18c.74,0,1.27-.37,1.27-.9,0-.69-.92-1.28-2.25-1.28-2.36,0-3.92,1.8-3.92,4.8s1.52,4.8,3.92,4.8c1.45,0,2.54-.67,3.13-1.73l.33.21c-.63,1.17-2.19,2.04-4.12,2.04-3.09,0-5.57-2.25-5.57-5.3Z"/>
        <path class="cls-1" d="M48.73,12.95c0-2.19,1.73-3.84,4.03-3.84s4.03,1.65,4.03,3.84-1.73,3.84-4.03,3.84-4.03-1.65-4.03-3.84ZM54.47,12.95c0-2.22-.66-3.54-1.71-3.54s-1.71,1.33-1.71,3.54.65,3.54,1.71,3.54,1.71-1.33,1.71-3.54Z"/>
        <path class="cls-1" d="M57.72,15.18c0-.53.4-.92.95-.92s.89.37.89.9c-.4,0-.67.21-.67.5,0,.47.68.8,1.68.8,1.09,0,1.79-.38,1.79-1.02s-.72-.97-1.88-1.51c-.98-.43-2.69-1.03-2.69-2.6,0-1.36,1.3-2.23,3.21-2.23,1.48,0,2.66.52,2.66,1.46,0,.5-.35.9-.89.9s-.93-.38-.93-.9c.38,0,.61-.19.61-.47,0-.41-.53-.67-1.34-.67-1.02,0-1.7.4-1.7,1.03s.75.99,1.88,1.48c1.14.49,2.69,1.05,2.69,2.57,0,1.34-1.18,2.27-3.23,2.27-1.7,0-3.01-.63-3.01-1.61Z"/>
        <path class="cls-1" d="M65.37,14.8v-5.24h-.89v-.15c1.17-.3,2.42-1.23,3.15-2.38v2.23h1.89v.29h-1.89v5.61c0,.62.4,1.08.95,1.08.44,0,.89-.31,1.03-.72l.24.13c-.15.65-1.09,1.14-2.11,1.14-1.36,0-2.36-.86-2.36-1.99Z"/>
        <path class="cls-1" d="M70.62,14.34v-3.4c0-.5-.16-1.02-.38-1.27l2.64-.49v5.69c0,.68.47,1.2,1.14,1.2s1.3-.53,1.64-1.31v-3.81c0-.5-.16-1.02-.4-1.27l2.66-.49v6.19c0,.5.15,1.02.38,1.27h-2.5c-.09-.25-.15-.75-.15-1.27-.52.84-1.48,1.42-2.53,1.42-1.42,0-2.51-1.03-2.51-2.45Z"/>
        <path class="cls-1" d="M79.79,15.37v-4.43c0-.5-.16-1.02-.4-1.27l2.66-.49v1.34c.4-.87,1.14-1.42,2.04-1.42.99,0,1.68.65,1.68,1.52,0,.69-.44,1.17-1.11,1.17s-1.15-.49-1.15-1.12c.59,0,.96-.25.96-.64,0-.29-.22-.46-.61-.46-.8,0-1.51.65-1.82,1.61v4.18c0,.5.21,1.02.52,1.27h-3.17c.24-.25.4-.77.4-1.27Z"/>
        <path class="cls-1" d="M85.92,14.74c0-1.3,1.24-2.17,3.04-2.17.83,0,1.68.19,2.1.47v-1.79c0-1.08-.69-1.77-1.85-1.77-.75,0-1.27.3-1.27.77,0,.37.31.63.77.63,0,.62-.44,1.09-1.09,1.09s-1.12-.44-1.12-1.09c0-1.05,1.29-1.77,3.18-1.77,2.17,0,3.65,1.18,3.65,2.73v3.53c0,.5.16,1.02.4,1.27h-2.51c-.09-.22-.15-.65-.15-1.03-.55.71-1.57,1.18-2.64,1.18-1.45,0-2.5-.87-2.5-2.05ZM89.55,16.04c.59,0,1.17-.33,1.51-.86v-1.82c-.27-.22-.72-.35-1.23-.35-.99,0-1.6.58-1.6,1.54,0,.89.5,1.49,1.31,1.49Z"/>
        <path class="cls-1" d="M94.66,15.18c0-.53.4-.92.95-.92s.89.37.89.9c-.4,0-.67.21-.67.5,0,.47.68.8,1.68.8,1.09,0,1.79-.38,1.79-1.02s-.72-.97-1.88-1.51c-.97-.43-2.69-1.03-2.69-2.6,0-1.36,1.3-2.23,3.21-2.23,1.48,0,2.66.52,2.66,1.46,0,.5-.35.9-.89.9s-.93-.38-.93-.9c.38,0,.61-.19.61-.47,0-.41-.53-.67-1.34-.67-1.02,0-1.7.4-1.7,1.03s.75.99,1.88,1.48c1.14.49,2.69,1.05,2.69,2.57,0,1.34-1.18,2.27-3.23,2.27-1.7,0-3.01-.63-3.01-1.61Z"/>
        <path class="cls-1" d="M106.14,14.71l3.68-8.41h.8l3.8,8.7c.31.71.72,1.36,1.06,1.64h-3.62c.35-.38.41-1.08.12-1.76l-.44-1.03h-4.61l-.37.87c-.33.72-.18,1.48.34,1.92h-2.14c.46-.31.99-1.05,1.39-1.93ZM111.4,13.56l-2.16-4.99-2.19,4.99h4.34Z"/>
        <path class="cls-1" d="M116.27,15.37v-7.75c0-.5-.16-1.02-.4-1.27l2.66-.49v9.51c0,.5.15,1.02.38,1.27h-3.04c.24-.25.4-.77.4-1.27Z"/>
        <path class="cls-1" d="M120.45,15.37v-4.43c0-.5-.16-1.02-.4-1.27l2.66-.49v6.19c0,.5.15,1.02.38,1.27h-3.04c.24-.25.4-.77.4-1.27ZM120.35,7.13c0-.69.55-1.21,1.27-1.21.68,0,1.2.52,1.2,1.21s-.52,1.23-1.2,1.23c-.72,0-1.27-.52-1.27-1.23Z"/>
        <path class="cls-1" d="M124.13,12.95c0-2.19,1.76-3.84,4.08-3.84,1.65,0,2.91.87,2.91,1.99,0,.68-.46,1.14-1.09,1.14s-1.12-.47-1.12-1.09c.67,0,1.11-.31,1.11-.8s-.46-.77-1.17-.77c-1.46,0-2.39,1.26-2.39,3.35s.95,3.37,2.45,3.37c.86,0,1.61-.41,1.95-1.02l.31.19c-.41.75-1.57,1.31-2.94,1.31-2.38,0-4.09-1.7-4.09-3.84Z"/>
        <path class="cls-1" d="M131.89,14.74c0-1.3,1.24-2.17,3.04-2.17.83,0,1.68.19,2.1.47v-1.79c0-1.08-.69-1.77-1.85-1.77-.75,0-1.27.3-1.27.77,0,.37.31.63.77.63,0,.62-.44,1.09-1.09,1.09s-1.12-.44-1.12-1.09c0-1.05,1.29-1.77,3.18-1.77,2.17,0,3.65,1.18,3.65,2.73v3.53c0,.5.16,1.02.4,1.27h-2.51c-.09-.22-.15-.65-.15-1.03-.55.71-1.57,1.18-2.64,1.18-1.45,0-2.5-.87-2.5-2.05ZM135.53,16.04c.59,0,1.17-.33,1.51-.86v-1.82c-.27-.22-.72-.35-1.23-.35-.99,0-1.6.58-1.6,1.54,0,.89.5,1.49,1.31,1.49Z"/>
        <path class="cls-1" d="M141.06,15.37v-4.43c0-.5-.16-1.02-.4-1.27l2.66-.49v1.31c.5-.83,1.49-1.39,2.58-1.39,1.46,0,2.53,1.05,2.53,2.44v3.83c0,.5.16,1.02.4,1.27h-3.04c.24-.25.38-.77.38-1.27v-4.34c0-.69-.49-1.23-1.15-1.23-.69.01-1.37.52-1.7,1.29v4.28c0,.5.15,1.02.38,1.27h-3.04c.24-.25.4-.77.4-1.27Z"/>
        <path class="cls-1" d="M150.3,14.8v-5.24h-.89v-.15c1.17-.3,2.42-1.23,3.15-2.38v2.23h1.89v.29h-1.89v5.61c0,.62.4,1.08.95,1.08.44,0,.89-.31,1.03-.72l.24.13c-.15.65-1.09,1.14-2.11,1.14-1.36,0-2.36-.86-2.36-1.99Z"/>
        <path class="cls-1" d="M154.81,12.94c0-2.2,1.74-3.83,3.94-3.83s3.65,1.55,3.65,3.59h-5.27c0,2.45.96,3.62,2.56,3.62.78,0,1.42-.29,1.42-.81,0-.43-.43-.74-1.02-.74,0-.61.49-1.09,1.14-1.09s1.08.5,1.08,1.12c0,1.12-1.42,1.99-3.25,1.99-2.48,0-4.24-1.65-4.24-3.85ZM157.13,12.4h3.15c-.04-1.88-.61-3-1.52-3s-1.57,1.25-1.62,3Z"/>
      </g>
    </g>
  </g>
</svg>