<?xml version="1.0" encoding="UTF-8"?>
<svg id="Capa_2" data-name="Capa 2" xmlns="http://www.w3.org/2000/svg" viewBox="0 0 1046.5 1046.5">
  <defs>
    <style>
      .cls-1 {
        letter-spacing: -.02em;
      }

      .cls-2 {
        letter-spacing: 0em;
      }

      .cls-3 {
        letter-spacing: 0em;
      }

      .cls-4 {
        font-family: QuicheFlare-Bold, 'Quiche Flare';
        font-size: 106.22px;
        font-weight: 700;
        stroke: #000100;
        stroke-width: 1.69px;
      }

      .cls-4, .cls-5 {
        fill: #161615;
      }

      .cls-4, .cls-6 {
        stroke-miterlimit: 10;
      }

      .cls-7 {
        letter-spacing: 0em;
      }

      .cls-8 {
        letter-spacing: -.01em;
      }

      .cls-9 {
        letter-spacing: -.04em;
      }

      .cls-10 {
        letter-spacing: 0em;
      }

      .cls-11 {
        fill: #f8b300;
      }

      .cls-12 {
        letter-spacing: 0em;
      }

      .cls-13 {
        letter-spacing: 0em;
      }

      .cls-14 {
        letter-spacing: 0em;
      }

      .cls-5 {
        font-family: Poppins-Medium, Poppins;
        font-size: 40px;
        font-weight: 500;
        letter-spacing: .04em;
      }

      .cls-15 {
        fill: #000100;
      }

      .cls-6 {
        fill: none;
        stroke: #fff;
        stroke-dasharray: 7.01 0 7.01 7 .02 7;
        stroke-width: 7px;
      }

      .cls-16 {
        letter-spacing: -.01em;
      }
    </style>
  </defs>
  <g id="Capa_1-2" data-name="Capa 1">
    <g>
      <circle class="cls-11" cx="523.25" cy="523.25" r="523.25"/>
      <g>
        <rect class="cls-15" x="645.75" y="312.04" width="18.72" height="30.92"/>
        <path class="cls-15" d="M682.18,235.88c-6.02,0-10.9,4.88-10.9,10.9v161.42c0,6.02,4.88,10.9,10.9,10.9s10.9-4.88,10.9-10.9v-161.42c0-6.02-4.88-10.9-10.9-10.9ZM687.73,408.62c0,2.23-2.49,4.04-5.55,4.04s-5.55-1.81-5.55-4.04v-4.82c0,2.23,2.49,4.04,5.55,4.04s5.55-1.81,5.55-4.04v4.82ZM687.73,286.36c0-2.23-2.49-4.04-5.55-4.04s-5.55,1.81-5.55,4.04v-40.21c0-2.23,2.49-4.04,5.55-4.04s5.55,1.81,5.55,4.04v40.21Z"/>
        <path class="cls-15" d="M598.63,282.04c0,1.09-.88,1.97-1.97,1.97h0c-1.09,0-1.97-.88-1.97-1.97v-47.52c0-1.09.88-1.97,1.97-1.97h0c1.09,0,1.97.88,1.97,1.97v47.52Z"/>
        <path class="cls-15" d="M360.18,324.95c0,2.03-1.65,3.68-3.68,3.68h0c-2.03,0-3.68-1.65-3.68-3.68v-88.73c0-2.03,1.65-3.68,3.68-3.68h0c2.03,0,3.68,1.65,3.68,3.68v88.73Z"/>
        <path class="cls-15" d="M360.18,471.33c0,2.03-1.65,3.68-3.68,3.68h0c-2.03,0-3.68-1.65-3.68-3.68v-88.74c0-2.03,1.65-3.68,3.68-3.68h0c2.03,0,3.68,1.65,3.68,3.68v88.74Z"/>
        <path class="cls-15" d="M705.71,368.63c0,2.03-1.65,3.68-3.68,3.68h0c-2.03,0-3.68-1.65-3.68-3.68v-32.2l14.23-36.78v-19.75c0-2.03,1.65-3.68,3.68-3.68h0c2.03,0,3.68,1.65,3.68,3.68v19.66l-14.23,36.87v32.2Z"/>
        <g>
          <path class="cls-15" d="M337.25,451.58c0-2.35,1.9-4.25,4.25-4.25h0c2.35,0,4.25,1.9,4.25,4.25v4.92c0,2.35-1.9,4.25-4.25,4.25h0c-2.35,0-4.25-1.9-4.25-4.25v-4.92Z"/>
          <rect class="cls-15" x="340.47" y="451.96" width="13.61" height="4.16"/>
        </g>
        <path class="cls-15" d="M330.64,290.91c-7.09,2.13-8.58,8.75-2.55,11.06,6.66,2.55,6.1-7.09,17.44-4.11l2.98-3.69s-10.78-5.39-17.87-3.26ZM330,299.42c-1.37,0-2.48-1.11-2.48-2.48s1.11-2.48,2.48-2.48,2.48,1.11,2.48,2.48-1.11,2.48-2.48,2.48Z"/>
        <path class="cls-15" d="M367.14,254.67c0,1.68-1.37,3.05-3.05,3.05h-15.17c-1.68,0-3.05-1.36-3.05-3.05h0c0-1.68,1.36-3.05,3.05-3.05h15.17c1.68,0,3.05,1.37,3.05,3.05h0Z"/>
        <path class="cls-15" d="M349.26,411.08v-140.4h16.36s-9,3.5-11.16,4.82c-2.16,1.32-5.28,131.6-5.2,135.58Z"/>
        <path class="cls-15" d="M646.59,485.52h9.84s-13.24-50.68-5.29-100.22c7.94-49.54,7.68-95.17-33.47-103.62-42.36-8.7-82.63,23.07-149.57,23.07s-91.14-23.82-97.95-40.09h-26.47v151.65h26.47s0-44.25,23.45-58.62c20.48-12.55,97.19-17.02,155.05,1.13,57.86,18.15,18.53,97.19-4.16,126.69h13.05c41.09-50.24,29.12-97.14,29.12-97.14,14.56,46.33-13.61,97.14-13.61,97.14h68.28s-3.63-30.57-.5-58.32c0,0-.34,36.73,5.76,58.32ZM535.69,314.67c-15.45,2.87-45.87,6.19-45.87,6.19,0,0,17.73-2.4,33.17-5.55,15.44-3.16,60.3-13.42,79.91-11.35,9.75,1.03,12.85,3.69,10.26,5.56-2.62,1.89-9.93,1.81-17.66.69-15.36-2.24-44.36,1.59-59.8,4.46ZM607.22,357.68c-12.21,0-22.13-9.93-22.13-22.14s9.93-22.13,22.13-22.13,22.13,9.93,22.13,22.13-9.93,22.14-22.13,22.14ZM497.88,313.74c-43.68,2.84-71.76-3.63-71.76-3.63,0,0,29.31,4.16,72.04.19,29.39-2.73,82.25-23.18,106.08-22.6,27.04.66,37.63,21.84,37.63,21.84-28.74-24.2-100.31,1.36-143.99,4.2Z"/>
        <path class="cls-15" d="M357.01,411.08h8.23s1.99-16.31,3.83-20.99c0,0-3.69,10.35-4.68,14.18-.99,3.83-3.4,6.52-7.37,6.81Z"/>
        <path class="cls-15" d="M764.98,278.8c-14.62,0-32.74,5.67-32.74,5.67l-7.1-5.67v20.8l7.1-5.67s18.12,5.67,32.74,5.67,21.61-5.2,21.61-10.4-6.99-10.4-21.61-10.4ZM744.36,285.34s32.33-8.51,39.14,3.21c0,0-4.73-5.11-39.14-3.21Z"/>
        <path class="cls-15" d="M607.22,317.95c-9.7,0-17.6,7.89-17.6,17.6s7.89,17.6,17.6,17.6,17.6-7.9,17.6-17.6-7.89-17.6-17.6-17.6Z"/>
        <path class="cls-15" d="M301.48,492.88c-2.03,0-3.68-1.65-3.68-3.68h0c0-2.03,1.65-3.68,3.68-3.68h387.93c2.03,0,3.68,1.65,3.68,3.68h0c0,2.03-1.65,3.68-3.68,3.68h-387.93Z"/>
      </g>
      <text class="cls-5" transform="translate(193.12 697.93)"><tspan x="0" y="0">AJUSTES Y ARREGLOS A MEDIDA</tspan><tspan x="-79.96" y="55">LAVANDERÍA Y SERVICIO DE TINTORERÍA</tspan></text>
      <text class="cls-4" transform="translate(82.79 615.29)"><tspan class="cls-13" x="0" y="0">C</tspan><tspan class="cls-3" x="74.88" y="0">o</tspan><tspan class="cls-10" x="139.03" y="0">s</tspan><tspan class="cls-8" x="189.59" y="0">t</tspan><tspan x="229.53" y="0">u</tspan><tspan class="cls-1" x="294.75" y="0">r</tspan><tspan class="cls-2" x="342.54" y="0">as </tspan><tspan class="cls-14" x="483.17" y="0">A</tspan><tspan class="cls-7" x="557.2" y="0">li</tspan><tspan class="cls-16" x="617.32" y="0">c</tspan><tspan class="cls-7" x="673.3" y="0">a</tspan><tspan class="cls-12" x="735.54" y="0">n</tspan><tspan class="cls-9" x="800.65" y="0">t</tspan><tspan class="cls-7" x="838.04" y="0">e</tspan></text>
      <circle class="cls-6" cx="523.25" cy="523.25" r="495.01"/>
    </g>
  </g>
</svg>